<svg id="Layer_1" data-name="Layer 1" xmlns="http://www.w3.org/2000/svg" viewBox="0 0 512 512"><defs><style>.cls-1{fill:#495875;}</style></defs><title>gesture-6-filled</title><path class="cls-1" d="M187.29.23A53,53,0,0,0,129.18,53V221.74c-26.12,3.3-44.64,14.35-55.19,33C45,306,95.12,392.36,100.93,402c.24.4.5.79.76,1.16,21.3,29.86,27.49,41.89,27.49,64v27.11A17.66,17.66,0,0,0,146.84,512h256a17.66,17.66,0,0,0,17.66-17.66V442.73a177.43,177.43,0,0,1,10.87-61.26L437,366.12a163.21,163.21,0,0,0,10-56.32V239.86c0-27.85-21-51.68-47.82-54.24a53.17,53.17,0,0,0-27.78,4.85c-7.76-17-23.85-29.52-42.85-31.34a53.41,53.41,0,0,0-25,3.63c-6-20.82-23.93-36.86-45.66-38.94a53.63,53.63,0,0,0-22.8,2.81V54.48C235.11,26.62,214.11,2.8,187.29.23ZM240.9,163.48a17.67,17.67,0,0,1,13.66-4.5c8.9.85,15.87,9.24,15.87,19.09v51.45a17.66,17.66,0,0,0,35.31,0V211.86a17.67,17.67,0,0,1,19.44-17.57c8.9.85,15.87,9.24,15.87,19.09V256a17.66,17.66,0,0,0,35.31,0V238.34a17.48,17.48,0,0,1,5.78-13.07,17.65,17.65,0,0,1,13.66-4.5c8.9.85,15.87,9.24,15.87,19.09v69.95A128,128,0,0,1,403.83,354l-5.62,15.34a212.73,212.73,0,0,0-13,73.41v34H164.49v-9.45c0-33-10.77-51.85-33.63-83.94-17.79-30-40.36-86.1-26.13-111.2,4.23-7.47,12.43-12.36,24.45-14.63v16.19a17.66,17.66,0,1,0,35.31,0V53a17.67,17.67,0,0,1,19.44-17.57c8.9.85,15.87,9.24,15.87,19.09V194.2a17.66,17.66,0,0,0,35.31,0V176.55A17.48,17.48,0,0,1,240.9,163.48Z"/></svg>